<mxfile host="drawio-plugin" modified="2024-08-18T10:25:50.466Z" agent="Mozilla/5.0 (Macintosh; Intel Mac OS X 10_15_7) AppleWebKit/537.36 (KHTML, like Gecko) Chrome/122.0.0.0 Safari/537.36" etag="w7m6urmavzu0z5DkgxI8" version="22.1.22" type="embed">
  <diagram name="Page-1" id="NHuu8_jGMtw6Dy8e6932">
    <mxGraphModel dx="1551" dy="703" grid="1" gridSize="10" guides="1" tooltips="1" connect="1" arrows="1" fold="1" page="1" pageScale="1" pageWidth="827" pageHeight="1169" math="0" shadow="0">
      <root>
        <mxCell id="0" />
        <mxCell id="1" parent="0" />
        <mxCell id="4iYTFElYsv--CUm3XRpb-2" value="1.&amp;nbsp;&lt;span style=&quot;background-color: initial;&quot;&gt;Загрузка пользователей с контактами через .csv или .XIs файл&lt;/span&gt;" style="text;html=1;align=left;verticalAlign=top;whiteSpace=wrap;rounded=1;sketch=1;curveFitting=1;jiggle=2;" parent="1" vertex="1">
          <mxGeometry x="80" y="370" width="280" height="50" as="geometry" />
        </mxCell>
        <mxCell id="4iYTFElYsv--CUm3XRpb-3" value="2.&amp;nbsp;&lt;span style=&quot;background-color: initial;&quot;&gt;Создание шаблонов нотификаций и конфигурация нужных получателей&lt;/span&gt;" style="text;html=1;align=left;verticalAlign=top;whiteSpace=wrap;rounded=1;sketch=1;curveFitting=1;jiggle=2;" parent="1" vertex="1">
          <mxGeometry x="80" y="420" width="280" height="50" as="geometry" />
        </mxCell>
        <mxCell id="4iYTFElYsv--CUm3XRpb-4" value="3.&amp;nbsp;&lt;span style=&quot;background-color: initial;&quot;&gt;Отправка нотификаций на любой девайс получателя автоматически при отправке нотификации всей группе получателей&lt;/span&gt;" style="text;html=1;align=left;verticalAlign=top;whiteSpace=wrap;rounded=1;sketch=1;curveFitting=1;jiggle=2;" parent="1" vertex="1">
          <mxGeometry x="80" y="470" width="280" height="70" as="geometry" />
        </mxCell>
        <mxCell id="4iYTFElYsv--CUm3XRpb-9" value="" style="group;fontFamily=Comic Sans MS;rounded=1;sketch=1;curveFitting=1;jiggle=2;" parent="1" vertex="1" connectable="0">
          <mxGeometry x="740" y="355" width="140" height="80" as="geometry" />
        </mxCell>
        <mxCell id="4iYTFElYsv--CUm3XRpb-6" value="" style="rounded=1;whiteSpace=wrap;html=1;sketch=1;curveFitting=1;jiggle=2;" parent="4iYTFElYsv--CUm3XRpb-9" vertex="1">
          <mxGeometry width="120" height="60" as="geometry" />
        </mxCell>
        <mxCell id="4iYTFElYsv--CUm3XRpb-7" value="" style="rounded=1;whiteSpace=wrap;html=1;sketch=1;curveFitting=1;jiggle=2;" parent="4iYTFElYsv--CUm3XRpb-9" vertex="1">
          <mxGeometry x="10" y="10" width="120" height="60" as="geometry" />
        </mxCell>
        <mxCell id="4iYTFElYsv--CUm3XRpb-8" value="&lt;font face=&quot;Comic Sans MS&quot;&gt;API Services&lt;/font&gt;" style="rounded=1;whiteSpace=wrap;html=1;sketch=1;curveFitting=1;jiggle=2;" parent="4iYTFElYsv--CUm3XRpb-9" vertex="1">
          <mxGeometry x="20" y="20" width="120" height="60" as="geometry" />
        </mxCell>
        <mxCell id="4iYTFElYsv--CUm3XRpb-14" value="" style="endArrow=classic;html=1;rounded=1;sketch=1;curveFitting=1;jiggle=2;" parent="1" edge="1">
          <mxGeometry width="50" height="50" relative="1" as="geometry">
            <mxPoint x="547" y="395" as="sourcePoint" />
            <mxPoint x="720" y="395" as="targetPoint" />
          </mxGeometry>
        </mxCell>
        <mxCell id="4iYTFElYsv--CUm3XRpb-17" value="" style="endArrow=classic;html=1;rounded=1;sketch=1;curveFitting=1;jiggle=2;" parent="1" edge="1">
          <mxGeometry width="50" height="50" relative="1" as="geometry">
            <mxPoint x="830" y="445" as="sourcePoint" />
            <mxPoint x="850" y="505" as="targetPoint" />
          </mxGeometry>
        </mxCell>
        <mxCell id="4iYTFElYsv--CUm3XRpb-20" value="" style="rounded=1;whiteSpace=wrap;html=1;sketch=1;curveFitting=1;jiggle=2;" parent="1" vertex="1">
          <mxGeometry x="1010" y="345" width="160" height="190" as="geometry" />
        </mxCell>
        <mxCell id="4iYTFElYsv--CUm3XRpb-21" value="Third party services" style="text;html=1;align=center;verticalAlign=middle;whiteSpace=wrap;rounded=1;fontFamily=Comic Sans MS;sketch=1;curveFitting=1;jiggle=2;" parent="1" vertex="1">
          <mxGeometry x="1030" y="535" width="120" height="30" as="geometry" />
        </mxCell>
        <mxCell id="4iYTFElYsv--CUm3XRpb-22" value="Amazon SES" style="rounded=1;whiteSpace=wrap;html=1;fontFamily=Comic Sans MS;sketch=1;curveFitting=1;jiggle=2;" parent="1" vertex="1">
          <mxGeometry x="1040" y="355" width="100" height="20" as="geometry" />
        </mxCell>
        <mxCell id="4iYTFElYsv--CUm3XRpb-23" value="Twilo" style="rounded=1;whiteSpace=wrap;html=1;fontFamily=Comic Sans MS;sketch=1;curveFitting=1;jiggle=2;" parent="1" vertex="1">
          <mxGeometry x="1040" y="385" width="100" height="20" as="geometry" />
        </mxCell>
        <mxCell id="4iYTFElYsv--CUm3XRpb-24" value="Apple push" style="rounded=1;whiteSpace=wrap;html=1;fontFamily=Comic Sans MS;sketch=1;curveFitting=1;jiggle=2;" parent="1" vertex="1">
          <mxGeometry x="1040" y="415" width="100" height="20" as="geometry" />
        </mxCell>
        <mxCell id="4iYTFElYsv--CUm3XRpb-25" value="" style="endArrow=none;dashed=1;html=1;rounded=1;fontSize=11;spacing=2;spacingTop=0;strokeWidth=2;sketch=1;curveFitting=1;jiggle=2;" parent="1" edge="1">
          <mxGeometry width="50" height="50" relative="1" as="geometry">
            <mxPoint x="1110" y="455" as="sourcePoint" />
            <mxPoint x="1070.001111111111" y="455" as="targetPoint" />
          </mxGeometry>
        </mxCell>
        <mxCell id="4iYTFElYsv--CUm3XRpb-26" value="" style="endArrow=classic;html=1;rounded=1;sketch=1;curveFitting=1;jiggle=2;" parent="1" edge="1">
          <mxGeometry width="50" height="50" relative="1" as="geometry">
            <mxPoint x="890" y="393.82" as="sourcePoint" />
            <mxPoint x="1000" y="394" as="targetPoint" />
          </mxGeometry>
        </mxCell>
        <mxCell id="4iYTFElYsv--CUm3XRpb-27" value="1. SMS: Twilio&lt;div&gt;2. письма (email?): vonage; Google smtp&lt;br&gt;3. Telegram, whatsap...&lt;/div&gt;" style="text;html=1;align=left;verticalAlign=top;whiteSpace=wrap;rounded=1;sketch=1;curveFitting=1;jiggle=2;" parent="1" vertex="1">
          <mxGeometry x="1250" y="345" width="250" height="80" as="geometry" />
        </mxCell>
        <mxCell id="4iYTFElYsv--CUm3XRpb-28" value="MVP Requirements" style="text;html=1;align=left;verticalAlign=middle;whiteSpace=wrap;rounded=1;sketch=1;curveFitting=1;jiggle=2;" parent="1" vertex="1">
          <mxGeometry x="80" y="340" width="140" height="30" as="geometry" />
        </mxCell>
        <mxCell id="4iYTFElYsv--CUm3XRpb-77" value="" style="group;sketch=1;curveFitting=1;jiggle=2;" parent="1" vertex="1" connectable="0">
          <mxGeometry x="830" y="515" width="60" height="90" as="geometry" />
        </mxCell>
        <mxCell id="4iYTFElYsv--CUm3XRpb-15" value="" style="strokeWidth=2;html=1;shape=mxgraph.flowchart.database;whiteSpace=wrap;rounded=1;sketch=1;curveFitting=1;jiggle=2;" parent="4iYTFElYsv--CUm3XRpb-77" vertex="1">
          <mxGeometry width="60" height="60" as="geometry" />
        </mxCell>
        <mxCell id="4iYTFElYsv--CUm3XRpb-18" value="PostgreSQL" style="text;html=1;align=center;verticalAlign=middle;whiteSpace=wrap;rounded=1;fontFamily=Comic Sans MS;sketch=1;curveFitting=1;jiggle=2;" parent="4iYTFElYsv--CUm3XRpb-77" vertex="1">
          <mxGeometry y="60" width="60" height="30" as="geometry" />
        </mxCell>
        <mxCell id="4iYTFElYsv--CUm3XRpb-105" value="" style="group" parent="1" vertex="1" connectable="0">
          <mxGeometry x="450" y="350" width="60" height="110" as="geometry" />
        </mxCell>
        <mxCell id="4iYTFElYsv--CUm3XRpb-106" value="" style="shape=actor;whiteSpace=wrap;html=1;sketch=1;hachureGap=4;jiggle=2;curveFitting=1;fontFamily=Architects Daughter;fontSource=https%3A%2F%2Ffonts.googleapis.com%2Fcss%3Ffamily%3DArchitects%2BDaughter;" parent="4iYTFElYsv--CUm3XRpb-105" vertex="1">
          <mxGeometry x="3.330000000000041" width="53.33" height="80" as="geometry" />
        </mxCell>
        <mxCell id="4iYTFElYsv--CUm3XRpb-107" value="USER" style="text;html=1;align=center;verticalAlign=middle;whiteSpace=wrap;rounded=1;fontFamily=Comic Sans MS;sketch=1;curveFitting=1;jiggle=2;" parent="4iYTFElYsv--CUm3XRpb-105" vertex="1">
          <mxGeometry y="80" width="60" height="30" as="geometry" />
        </mxCell>
      </root>
    </mxGraphModel>
  </diagram>
</mxfile>
